<svg width="15" height="15" viewBox="0 0 15 15" fill="none" xmlns="http://www.w3.org/2000/svg">
<path fill-rule="evenodd" clip-rule="evenodd" d="M0.661057 0.903245C1.05158 0.51272 1.68475 0.51272 2.07527 0.903245L14.0753 12.9032C14.4658 13.2938 14.4658 13.9269 14.0753 14.3175C13.6847 14.708 13.0516 14.708 12.6611 14.3175L0.661057 2.31746C0.270533 1.92693 0.270533 1.29377 0.661057 0.903245Z" fill="#72883B"/>
<path fill-rule="evenodd" clip-rule="evenodd" d="M14.0753 0.903245C14.4658 1.29377 14.4658 1.92693 14.0753 2.31746L2.07527 14.3175C1.68475 14.708 1.05158 14.708 0.661057 14.3175C0.270533 13.9269 0.270533 13.2938 0.661057 12.9032L12.6611 0.903245C13.0516 0.51272 13.6847 0.51272 14.0753 0.903245Z" fill="#72883B"/>
</svg>
