<svg fill="none" xmlns="http://www.w3.org/2000/svg" viewBox="0 0 28 20"><path d="M8 0a3 3 0 110 6 3 3 0 010-6zm12 0a3 3 0 110 6 3 3 0 010-6zM5.2 10.3a1.6 1.6 0 01.6 2l-3 5a1.5 1.5 0 01-2 .4 1.6 1.6 0 01-.6-2l3-5a1.5 1.5 0 012-.4zm-1.8 1.9a16.6 16.6 0 0021.2 0c.7-.6 1 .1 1.4.8.5.8.9 1.3 0 2l-.8.5a19.6 19.6 0 01-23.6-1A1.2 1.2 0 012 13c.6-.6.7-1.4 1.4-.8z" fill="#fff"/><path d="M22 11.2c.2-.4.4-.7.8-1a1.5 1.5 0 012 .4l3 5a1.6 1.6 0 01-.6 2.1 1.5 1.5 0 01-2-.3l-3-5c-.2-.4-.3-.8-.2-1.2z" fill="#fff"/></svg>