<svg xmlns="http://www.w3.org/2000/svg" viewBox="0 0 98.6 98.6"><g fill="#FFF"><circle cx="49.9" cy="30.9" r="8.3"/><path d="M49.3 0C22.1 0 0 22.1 0 49.3s22.1 49.3 49.3 49.3 49.3-22.1 49.3-49.3S76.5 0 49.3 0zm.6 14c9.3 0 16.9 7.6 16.9 16.9s-7.6 16.9-16.9 16.9S33 40.2 33 30.9 40.5 14 49.9 14zm15 43.6c-3.6 2.3-8.5 3.2-11.8 3.5l2.7 2.7 10 10c1.5 1.5 1.5 4 0 5.5l-.5.5c-1.5 1.5-4 1.5-5.5 0l-10-10-10 10c-1.5 1.5-4 1.5-5.5 0l-.3-.5c-1.5-1.5-1.5-4 0-5.5l10-10 2.7-2.7c-3.2-.3-8.2-1.2-11.8-3.5-4.2-2.7-6.1-4.3-4.5-7.7 1-1.9 3.6-3.5 7.1-.7 4.8 3.7 12.4 3.7 12.4 3.7s7.6 0 12.4-3.7c3.5-2.8 6.2-1.2 7.1.7 1.6 3.3-.2 5-4.5 7.7z"/></g></svg>