<svg xmlns="http://www.w3.org/2000/svg" viewBox="0 0 98.6 98.6"><path d="M49.3 0C22.1 0 0 22.1 0 49.3s22.1 49.3 49.3 49.3 49.3-22.1 49.3-49.3S76.5 0 49.3 0zm21.4 55.8c.4.5 1.3 1.4 2.8 2.8l.1.1c3.2 3 5.4 5.5 6.5 7.6.1.1.1.3.2.4.1.2.2.5.2.9.1.4.1.8 0 1.2-.1.3-.4.7-.9.9-.5.3-1.2.4-2 .4l-8.6.2c-.5.1-1.2.1-1.9-.2-.7-.2-1.3-.5-1.8-.8l-.7-.3c-.7-.5-1.5-1.2-2.4-2.2-.9-1-1.7-1.9-2.3-2.7-.7-.8-1.3-1.4-2.1-2-.7-.5-1.4-.7-1.9-.5-.1 0-.2.1-.3.1-.1.1-.3.2-.6.5s-.5.6-.7 1c-.2.4-.4 1-.6 1.8-.2.8-.2 1.7-.2 2.7 0 .3 0 .7-.1.9-.1.3-.2.5-.3.6l-.1.2c-.4.4-1 .7-1.8.8h-3.9c-1.6.1-3.3-.1-5-.6-1.7-.5-3.2-1.1-4.5-1.8-1.3-.7-2.5-1.5-3.5-2.3-1.1-.8-1.9-1.4-2.4-2l-.9-.8c-.2-.2-.5-.6-.9-1-.4-.5-1.2-1.5-2.4-3.1s-2.4-3.3-3.6-5.2c-1.2-1.8-2.6-4.2-4.2-7.2s-3.1-6.1-4.5-9.3c-.3-.3-.4-.6-.4-.9 0-.2 0-.4.1-.5l.1-.2c.3-.4 1-.7 1.9-.7l9.4-.1c.3 0 .5.1.8.2.3.1.4.2.5.3l.2.1c.4.3.6.6.8 1.1.5 1.1 1 2.3 1.6 3.5l1.4 2.8.5 1c.7 1.4 1.3 2.6 1.9 3.6.6 1 1.2 1.8 1.7 2.3.5.6 1 1 1.4 1.3.5.3.8.5 1.2.5.3 0 .6-.1.9-.2l.2-.2c.1-.1.2-.3.4-.8.2-.4.4-.9.5-1.6.1-.7.2-1.6.3-2.8.1-1.2.1-2.6 0-4.3 0-.9-.1-1.7-.3-2.5-.2-.8-.3-1.3-.5-1.6l-.1-.2c-.6-.8-1.5-1.3-2.9-1.5-.3 0-.2-.3.2-.8.4-.4.8-.8 1.3-1 1.2-.6 3.9-.9 8.2-.8 1.9 0 3.4.2 4.6.4.5.1.8.3 1.1.5.3.2.5.5.7.8.2.4.3.7.4 1.1.1.4.1.9.1 1.6v1.9c0 .6-.1 1.4-.1 2.4s-.1 2-.1 2.8v3c0 .4.1.9.1 1.4.1.5.2 1 .4 1.3.2.4.5.6.8.8.2 0 .4.1.6.1.2 0 .5-.1.9-.4.4-.3.8-.7 1.3-1.2s1.1-1.3 1.8-2.3c.7-1 1.5-2.3 2.3-3.7 1.4-2.4 2.6-4.9 3.7-7.7l.3-.6c.1-.2.3-.3.4-.4l.1-.1s.1-.1.2-.1.2-.1.4-.1h.7l9.9-.1c.9-.1 1.6-.1 2.2.1.6.2.9.4 1.1.6l.2.3c.5 1.5-1.2 4.8-5.1 10.1-.5.7-1.3 1.7-2.2 2.9-1.8 2.3-2.8 3.8-3.1 4.5-.6 1.2-.4 2.1.3 3z" fill="#FFF"/></svg>